<?xml version="1.0" encoding="utf-8"?>
<!-- Generator: Adobe Illustrator 22.1.0, SVG Export Plug-In . SVG Version: 6.00 Build 0)  -->
<svg version="1.1" id="레이어_1" xmlns="http://www.w3.org/2000/svg" xmlns:xlink="http://www.w3.org/1999/xlink" x="0px"
	 y="0px" viewBox="0 0 212.5 300" style="enable-background:new 0 0 212.5 300;" xml:space="preserve">
<style type="text/css">
	.st0{fill:#FFFFFF;}
</style>
<g>
	<g>
		<path class="st0" d="M26.6,262.4h2.9v18.4c0,3.4-0.9,6.3-2.7,8.3c-1.9,2-4.6,3-8.3,3s-6.4-1-8.3-3c-1.9-2-2.7-4.7-2.7-8.3v-18.4
			h2.9v18.1c0,5.9,2.7,8.9,8.1,8.9s8.1-3,8.1-8.9C26.6,280.6,26.6,262.4,26.6,262.4z"/>
		<path class="st0" d="M34,262.4h3.9v3.9H34V262.4z M37.4,291.3h-2.9v-20h2.9V291.3z"/>
		<path class="st0" d="M74.7,291.3l-3-8.3H59.4l-3,8.3h-3.3l11-28.8H67l10.9,28.8H74.7z M60.4,280.4h10.3L66.1,268l-0.6-2.1L65,268
			L60.4,280.4z"/>
		<path class="st0" d="M93.4,277.3c-0.1-1.3-0.7-2.3-1.6-3.1c-0.9-0.9-2.1-1.3-3.7-1.3c-2,0-3.4,0.7-4.6,2.1s-1.6,3.4-1.6,6.1
			c0,2.7,0.6,4.7,1.6,6.1c1,1.4,2.6,2.1,4.6,2.1c1.7,0,3-0.4,4-1.3c1-0.9,1.6-2,1.7-3.3h2.9c-0.1,2.1-1,3.9-2.6,5.3
			c-1.4,1.3-3.6,2-6.3,2c-1.4,0-2.7-0.3-3.9-0.7c-1.1-0.6-2-1.3-2.7-2.1c-0.7-1-1.3-2.1-1.7-3.4s-0.6-2.7-0.6-4.4
			c0-1.7,0.1-3.1,0.6-4.6c0.4-1.3,1-2.4,1.7-3.4c0.7-1,1.7-1.7,2.9-2.1c1.1-0.6,2.4-0.7,3.9-0.7c2.4,0,4.4,0.6,5.9,1.9
			c1.4,1.3,2.3,2.9,2.4,5h-2.9V277.3z"/>
		<path class="st0" d="M108.2,270.4c1.4,0,2.6,0.1,3.6,0.6c1,0.4,1.9,0.9,2.4,1.6c0.6,0.7,1.1,1.4,1.4,2.3c0.3,0.9,0.4,1.9,0.4,2.9
			v13.6h-2.3l-0.6-2.1c-0.7,1-1.7,1.7-3,2.1c-1.3,0.6-2.4,0.7-3.6,0.7c-2.3,0-4-0.6-5.1-1.7c-1.1-1.1-1.7-2.7-1.7-4.6
			c0-1.1,0.1-2.1,0.6-3s1-1.6,1.7-2.1c0.7-0.6,1.7-1,2.7-1.3c1-0.3,2.1-0.4,3.3-0.4h4.9v-1c0-1.7-0.4-3-1.4-3.7
			c-0.9-0.7-2.1-1.1-3.6-1.1c-1.4,0-2.6,0.3-3.4,1c-0.9,0.7-1.4,1.4-1.6,2.6h-2.9c0.1-1,0.3-1.7,0.7-2.6c0.4-0.7,1-1.4,1.7-1.9
			c0.7-0.6,1.6-0.9,2.4-1.1C106.2,270.6,107.1,270.4,108.2,270.4z M102.8,285.7c0,1.1,0.4,2.1,1.1,2.9c0.7,0.7,1.9,1,3.3,1
			c0.6,0,1.1-0.1,1.7-0.3c0.6-0.1,1.1-0.4,1.7-0.6c0.6-0.3,1-0.6,1.4-1c0.4-0.4,0.9-0.7,1.1-1.1v-5.3h-4.9c-1.9,0-3.1,0.4-4.1,1.1
			C103.2,283.3,102.8,284.3,102.8,285.7z"/>
		<path class="st0" d="M137.6,261.6v29.7h-2.4l-0.4-2.3c-0.7,1-1.7,1.7-2.7,2.3c-1.1,0.6-2.3,0.9-3.6,0.9c-1.4,0-2.6-0.3-3.7-0.9
			c-1.1-0.6-2-1.3-2.7-2.3c-0.7-1-1.3-2.1-1.7-3.4c-0.4-1.3-0.6-2.7-0.6-4.4c0-1.7,0.1-3,0.6-4.4c0.4-1.3,1-2.4,1.7-3.4
			c0.7-1,1.7-1.7,2.7-2.3c1.1-0.6,2.3-0.9,3.7-0.9c1.3,0,2.4,0.3,3.6,0.9c1,0.6,2,1.3,2.7,2.3v-11.9h2.9V261.6z M128.8,289.6
			c1.9,0,3.4-0.7,4.4-2.1c1.1-1.4,1.6-3.4,1.6-6.1c0-2.7-0.6-4.7-1.6-6.1c-1.1-1.4-2.6-2.1-4.4-2.1c-1.9,0-3.4,0.7-4.4,2.1
			c-1.1,1.4-1.6,3.4-1.6,6.1c0,2.7,0.6,4.7,1.6,6.1C125.4,288.9,126.9,289.6,128.8,289.6z"/>
		<path class="st0" d="M150.8,270.4c1.4,0,2.7,0.3,3.9,0.7c1.1,0.6,2,1.1,2.9,2s1.3,1.9,1.7,3c0.4,1.1,0.6,2.4,0.6,3.7
			c0,0.6,0,1.1-0.1,1.9h-15.1c0.1,2.4,0.7,4.3,1.9,5.6s2.7,2,4.6,2c1.6,0,2.9-0.3,3.7-1c0.9-0.7,1.6-1.6,1.9-2.6h2.9
			c-0.4,1.9-1.3,3.4-2.7,4.4c-1.4,1.1-3.3,1.7-5.9,1.7c-1.4,0-2.9-0.3-4-0.7c-1.1-0.6-2.1-1.3-2.9-2.1c-0.9-1-1.4-2.1-1.7-3.4
			c-0.4-1.3-0.6-2.7-0.6-4.4c0-1.7,0.1-3,0.6-4.4s1-2.4,1.9-3.4c0.7-1,1.7-1.7,2.9-2.3C148.1,270.7,149.4,270.4,150.8,270.4z
			 M150.8,273c-1.7,0-3.1,0.6-4.1,1.7c-1.1,1.1-1.7,2.7-2,4.7h12.1c0-2-0.6-3.6-1.6-4.7C154.2,273.6,152.8,273,150.8,273z"/>
		<path class="st0" d="M173.9,277.9c0-1.6-0.3-2.9-1-3.6c-0.7-0.9-1.7-1.3-3-1.3c-1.3,0-2.3,0.4-2.9,1.3c-0.7,0.9-1,2-1.1,3.4v13.6
			h-2.7v-20h2.3l0.3,1.6c0.6-0.7,1.3-1.3,2-1.7c0.9-0.4,1.7-0.7,2.7-0.7c1.1,0,2.1,0.3,3,0.9c0.9,0.6,1.6,1.3,2.1,2.3
			c0.6-1,1.3-1.7,2.3-2.3c1-0.6,2-0.9,3.3-0.9c1,0,2,0.1,2.7,0.6c0.9,0.4,1.4,0.9,2,1.6c0.6,0.6,1,1.4,1.3,2.3
			c0.3,0.9,0.4,1.7,0.4,2.7v13.7h-2.7v-13.4c0-1.6-0.3-2.9-1-3.6c-0.7-0.9-1.7-1.3-3-1.3c-1.3,0-2.3,0.4-2.9,1.3
			c-0.7,0.9-1,2-1.1,3.4v13.6h-2.7v-13.4H173.9z"/>
		<path class="st0" d="M192.9,300c-0.4,0-0.9,0-1.3-0.1c-0.4-0.1-0.7-0.1-1-0.3v-2.4c0.7,0.1,1.4,0.3,2.1,0.3c1.1,0,1.9-0.3,2.4-0.9
			s1-1.4,1.4-2.6l1.3-3.6l-8-19.1h3.1l4.3,10.4l2.1,5.4l1.9-5.4l3.6-10.4h3.1l-8.3,23c-0.4,1-0.7,1.9-1,2.6
			c-0.3,0.7-0.7,1.3-1.3,1.9c-0.6,0.6-1,0.9-1.7,1C195,299.9,194.1,300,192.9,300z"/>
	</g>
	<g>
		<polygon class="st0" points="91.2,206.2 48.1,169.5 48.1,38.1 94.5,77.8 133.8,44.4 81.8,0 52.3,25.1 48.1,28.7 0,69.7 0,195.2 
			52,239.6 58.5,245.2 97.7,211.8 127.4,186.3 120.9,180.9 		"/>
		<path class="st0" d="M212.5,184.8v-14.9h-9.6l5-25.6h-14.1l-5,25.6h-17l5-25.6h-14l-5,25.6h-19.1v14.9h16.3l-3.9,20.1h-12.4v14.9
			h9.6l-5.3,27h14.1l5.3-27h17l-5.3,27h14.1l5.3-27h19v-14.9h-16.1l3.9-20.1H212.5z M182.1,205h-17l3.9-20.1h17L182.1,205z"/>
	</g>
</g>
</svg>
